STARTFONT 2.1
COMMENT Generated with 'ucs2any.pl 6x9.bdf xcyr-2.3/KOI8-C.TXT KOI8-C'
COMMENT from an ISO10646-1 encoded source BDF font.
COMMENT ucs2any.pl by Markus Kuhn <mkuhn@acm.org>, 1999.
COMMENT Id: 6x9.bdf,v 1.13 1999-11-06 20:18:24+00 mgk25 Exp mgk25 $
COMMENT Send bug reports to Markus Kuhn <mkuhn@acm.org>
COMMENT Changes 1999 by Serge Winitzki.
COMMENT $XFree86$
FONT -Misc-Fixed-Medium-R-Normal--9-90-75-75-C-60-KOI8-R
SIZE 9 75 75
FONTBOUNDINGBOX 6 9 0 -2
STARTPROPERTIES 22
FONTNAME_REGISTRY ""
FOUNDRY "Misc"
FAMILY_NAME "Fixed"
WEIGHT_NAME "Medium"
SLANT "R"
SETWIDTH_NAME "Normal"
ADD_STYLE_NAME ""
PIXEL_SIZE 9
POINT_SIZE 90
RESOLUTION_X 75
RESOLUTION_Y 75
SPACING "C"
AVERAGE_WIDTH 60
CHARSET_REGISTRY "KOI8"
CHARSET_ENCODING "R"
FONT_ASCENT 7
FONT_DESCENT 2
COPYRIGHT "Public domain font.  Share and enjoy."
CAP_HEIGHT 6
X_HEIGHT 4
_XMBDFED_INFO "Edited with xmbdfed 4.3."
_XFREE86_GLYPH_RANGES "1_126 149 152_154 156_158 163 179 191_255"
ENDPROPERTIES
CHARS 200
STARTCHAR uni25C6
ENCODING 1
SWIDTH 640 0
DWIDTH 6 0
BBX 6 5 0 0
BITMAP
30
78
FC
78
30
ENDCHAR
STARTCHAR shade
ENCODING 2
SWIDTH 640 0
DWIDTH 6 0
BBX 6 9 0 -2
BITMAP
54
A8
54
A8
54
A8
54
A8
54
ENDCHAR
STARTCHAR uni2409
ENCODING 3
SWIDTH 640 0
DWIDTH 6 0
BBX 6 7 0 -1
BITMAP
A0
E0
A0
00
38
10
10
ENDCHAR
STARTCHAR uni240C
ENCODING 4
SWIDTH 640 0
DWIDTH 6 0
BBX 6 8 0 -2
BITMAP
E0
80
C0
80
38
20
30
20
ENDCHAR
STARTCHAR uni240D
ENCODING 5
SWIDTH 640 0
DWIDTH 6 0
BBX 6 8 0 -2
BITMAP
60
80
60
00
30
28
30
28
ENDCHAR
STARTCHAR uni240A
ENCODING 6
SWIDTH 640 0
DWIDTH 6 0
BBX 6 8 0 -2
BITMAP
80
80
80
C0
38
20
30
20
ENDCHAR
STARTCHAR degree
ENCODING 7
SWIDTH 640 0
DWIDTH 6 0
BBX 6 3 0 2
BITMAP
30
48
30
ENDCHAR
STARTCHAR plusminus
ENCODING 8
SWIDTH 640 0
DWIDTH 6 0
BBX 6 7 0 -1
BITMAP
20
20
F8
20
20
00
F8
ENDCHAR
STARTCHAR uni2424
ENCODING 9
SWIDTH 640 0
DWIDTH 6 0
BBX 6 8 0 -2
BITMAP
90
D0
B0
90
20
20
20
38
ENDCHAR
STARTCHAR uni240B
ENCODING 10
SWIDTH 640 0
DWIDTH 6 0
BBX 6 8 0 -2
BITMAP
A0
A0
40
40
38
10
10
10
ENDCHAR
STARTCHAR SF040000
ENCODING 11
SWIDTH 640 0
DWIDTH 6 0
BBX 6 5 0 2
BITMAP
10
10
10
10
F0
ENDCHAR
STARTCHAR SF030000
ENCODING 12
SWIDTH 640 0
DWIDTH 6 0
BBX 6 5 0 -2
BITMAP
F0
10
10
10
10
ENDCHAR
STARTCHAR SF010000
ENCODING 13
SWIDTH 640 0
DWIDTH 6 0
BBX 6 5 0 -2
BITMAP
1C
10
10
10
10
ENDCHAR
STARTCHAR SF020000
ENCODING 14
SWIDTH 640 0
DWIDTH 6 0
BBX 6 5 0 2
BITMAP
10
10
10
10
1C
ENDCHAR
STARTCHAR SF050000
ENCODING 15
SWIDTH 640 0
DWIDTH 6 0
BBX 6 9 0 -2
BITMAP
10
10
10
10
FC
10
10
10
10
ENDCHAR
STARTCHAR char16
ENCODING 16
SWIDTH 640 0
DWIDTH 6 0
BBX 6 1 0 6
BITMAP
FC
ENDCHAR
STARTCHAR char17
ENCODING 17
SWIDTH 640 0
DWIDTH 6 0
BBX 6 1 0 4
BITMAP
FC
ENDCHAR
STARTCHAR char18
ENCODING 18
SWIDTH 640 0
DWIDTH 6 0
BBX 6 1 0 2
BITMAP
FC
ENDCHAR
STARTCHAR char19
ENCODING 19
SWIDTH 640 0
DWIDTH 6 0
BBX 6 1 0 1
BITMAP
FC
ENDCHAR
STARTCHAR char20
ENCODING 20
SWIDTH 640 0
DWIDTH 6 0
BBX 6 1 0 -1
BITMAP
FC
ENDCHAR
STARTCHAR SF080000
ENCODING 21
SWIDTH 640 0
DWIDTH 6 0
BBX 6 9 0 -2
BITMAP
10
10
10
10
1C
10
10
10
10
ENDCHAR
STARTCHAR SF090000
ENCODING 22
SWIDTH 640 0
DWIDTH 6 0
BBX 6 9 0 -2
BITMAP
10
10
10
10
F0
10
10
10
10
ENDCHAR
STARTCHAR SF070000
ENCODING 23
SWIDTH 640 0
DWIDTH 6 0
BBX 6 5 0 2
BITMAP
10
10
10
10
FC
ENDCHAR
STARTCHAR SF060000
ENCODING 24
SWIDTH 640 0
DWIDTH 6 0
BBX 6 5 0 -2
BITMAP
FC
10
10
10
10
ENDCHAR
STARTCHAR SF110000
ENCODING 25
SWIDTH 640 0
DWIDTH 6 0
BBX 6 9 0 -2
BITMAP
10
10
10
10
10
10
10
10
10
ENDCHAR
STARTCHAR lessequal
ENCODING 26
SWIDTH 640 0
DWIDTH 6 0
BBX 6 7 0 -1
BITMAP
18
60
80
60
98
60
18
ENDCHAR
STARTCHAR greaterequal
ENCODING 27
SWIDTH 640 0
DWIDTH 6 0
BBX 6 7 0 -1
BITMAP
C0
30
08
30
C8
30
C0
ENDCHAR
STARTCHAR pi
ENCODING 28
SWIDTH 640 0
DWIDTH 6 0
BBX 6 4 0 0
BITMAP
F8
50
50
50
ENDCHAR
STARTCHAR notequal
ENCODING 29
SWIDTH 640 0
DWIDTH 6 0
BBX 6 5 0 0
BITMAP
10
F8
20
F8
40
ENDCHAR
STARTCHAR sterling
ENCODING 30
SWIDTH 640 0
DWIDTH 6 0
BBX 6 7 0 -1
BITMAP
30
48
40
F0
40
40
F8
ENDCHAR
STARTCHAR periodcentered
ENCODING 31
SWIDTH 640 0
DWIDTH 6 0
BBX 6 1 0 2
BITMAP
20
ENDCHAR
STARTCHAR space
ENCODING 32
SWIDTH 640 0
DWIDTH 6 0
BBX 0 0 0 0
BITMAP
ENDCHAR
STARTCHAR exclam
ENCODING 33
SWIDTH 640 0
DWIDTH 6 0
BBX 6 6 0 0
BITMAP
20
20
20
20
00
20
ENDCHAR
STARTCHAR quotedbl
ENCODING 34
SWIDTH 640 0
DWIDTH 6 0
BBX 6 3 0 3
BITMAP
50
50
50
ENDCHAR
STARTCHAR numbersign
ENCODING 35
SWIDTH 640 0
DWIDTH 6 0
BBX 6 7 0 -1
BITMAP
50
50
F8
50
F8
50
50
ENDCHAR
STARTCHAR dollar
ENCODING 36
SWIDTH 640 0
DWIDTH 6 0
BBX 6 9 0 -2
BITMAP
20
70
A8
A0
70
28
A8
70
20
ENDCHAR
STARTCHAR percent
ENCODING 37
SWIDTH 640 0
DWIDTH 6 0
BBX 6 8 0 -1
BITMAP
40
A8
48
10
20
48
54
08
ENDCHAR
STARTCHAR ampersand
ENCODING 38
SWIDTH 640 0
DWIDTH 6 0
BBX 6 7 0 -1
BITMAP
60
90
90
60
98
90
68
ENDCHAR
STARTCHAR quotesingle
ENCODING 39
SWIDTH 640 0
DWIDTH 6 0
BBX 6 3 0 3
BITMAP
20
20
20
ENDCHAR
STARTCHAR parenleft
ENCODING 40
SWIDTH 640 0
DWIDTH 6 0
BBX 6 7 0 -1
BITMAP
10
20
20
20
20
20
10
ENDCHAR
STARTCHAR parenright
ENCODING 41
SWIDTH 640 0
DWIDTH 6 0
BBX 6 7 0 -1
BITMAP
20
10
10
10
10
10
20
ENDCHAR
STARTCHAR asterisk
ENCODING 42
SWIDTH 640 0
DWIDTH 6 0
BBX 6 5 0 0
BITMAP
88
50
F8
50
88
ENDCHAR
STARTCHAR plus
ENCODING 43
SWIDTH 640 0
DWIDTH 6 0
BBX 6 5 0 0
BITMAP
20
20
F8
20
20
ENDCHAR
STARTCHAR comma
ENCODING 44
SWIDTH 640 0
DWIDTH 6 0
BBX 6 4 0 -2
BITMAP
30
10
10
20
ENDCHAR
STARTCHAR hyphen
ENCODING 45
SWIDTH 640 0
DWIDTH 6 0
BBX 6 1 0 2
BITMAP
F8
ENDCHAR
STARTCHAR period
ENCODING 46
SWIDTH 640 0
DWIDTH 6 0
BBX 6 2 0 0
BITMAP
30
30
ENDCHAR
STARTCHAR slash
ENCODING 47
SWIDTH 640 0
DWIDTH 6 0
BBX 6 6 0 0
BITMAP
08
08
10
20
40
40
ENDCHAR
STARTCHAR zero
ENCODING 48
SWIDTH 640 0
DWIDTH 6 0
BBX 6 6 0 0
BITMAP
30
48
48
48
48
30
ENDCHAR
STARTCHAR one
ENCODING 49
SWIDTH 640 0
DWIDTH 6 0
BBX 6 6 0 0
BITMAP
20
60
20
20
20
70
ENDCHAR
STARTCHAR two
ENCODING 50
SWIDTH 640 0
DWIDTH 6 0
BBX 6 6 0 0
BITMAP
30
48
08
10
20
78
ENDCHAR
STARTCHAR three
ENCODING 51
SWIDTH 640 0
DWIDTH 6 0
BBX 6 6 0 0
BITMAP
78
10
30
08
08
70
ENDCHAR
STARTCHAR four
ENCODING 52
SWIDTH 640 0
DWIDTH 6 0
BBX 6 6 0 0
BITMAP
10
30
50
90
F8
10
ENDCHAR
STARTCHAR five
ENCODING 53
SWIDTH 640 0
DWIDTH 6 0
BBX 6 6 0 0
BITMAP
78
40
70
08
08
70
ENDCHAR
STARTCHAR six
ENCODING 54
SWIDTH 640 0
DWIDTH 6 0
BBX 6 6 0 0
BITMAP
30
40
70
48
48
30
ENDCHAR
STARTCHAR seven
ENCODING 55
SWIDTH 640 0
DWIDTH 6 0
BBX 6 6 0 0
BITMAP
78
08
08
10
20
20
ENDCHAR
STARTCHAR eight
ENCODING 56
SWIDTH 640 0
DWIDTH 6 0
BBX 6 6 0 0
BITMAP
30
48
30
48
48
30
ENDCHAR
STARTCHAR nine
ENCODING 57
SWIDTH 640 0
DWIDTH 6 0
BBX 6 6 0 0
BITMAP
30
48
48
38
08
30
ENDCHAR
STARTCHAR colon
ENCODING 58
SWIDTH 640 0
DWIDTH 6 0
BBX 6 5 0 0
BITMAP
30
30
00
30
30
ENDCHAR
STARTCHAR semicolon
ENCODING 59
SWIDTH 640 0
DWIDTH 6 0
BBX 6 7 0 -2
BITMAP
30
30
00
30
10
10
20
ENDCHAR
STARTCHAR less
ENCODING 60
SWIDTH 640 0
DWIDTH 6 0
BBX 6 5 0 0
BITMAP
18
60
80
60
18
ENDCHAR
STARTCHAR equal
ENCODING 61
SWIDTH 640 0
DWIDTH 6 0
BBX 6 3 0 1
BITMAP
F8
00
F8
ENDCHAR
STARTCHAR greater
ENCODING 62
SWIDTH 640 0
DWIDTH 6 0
BBX 6 5 0 0
BITMAP
C0
30
08
30
C0
ENDCHAR
STARTCHAR question
ENCODING 63
SWIDTH 640 0
DWIDTH 6 0
BBX 6 7 0 0
BITMAP
30
48
08
30
20
00
20
ENDCHAR
STARTCHAR at
ENCODING 64
SWIDTH 640 0
DWIDTH 6 0
BBX 6 6 0 0
BITMAP
70
90
A8
B0
80
70
ENDCHAR
STARTCHAR A
ENCODING 65
SWIDTH 640 0
DWIDTH 6 0
BBX 6 6 0 0
BITMAP
20
50
88
F8
88
88
ENDCHAR
STARTCHAR B
ENCODING 66
SWIDTH 640 0
DWIDTH 6 0
BBX 6 6 0 0
BITMAP
F0
88
F0
88
88
F0
ENDCHAR
STARTCHAR C
ENCODING 67
SWIDTH 640 0
DWIDTH 6 0
BBX 6 6 0 0
BITMAP
30
48
40
40
48
30
ENDCHAR
STARTCHAR D
ENCODING 68
SWIDTH 640 0
DWIDTH 6 0
BBX 6 6 0 0
BITMAP
70
48
48
48
48
70
ENDCHAR
STARTCHAR E
ENCODING 69
SWIDTH 640 0
DWIDTH 6 0
BBX 6 6 0 0
BITMAP
78
40
70
40
40
78
ENDCHAR
STARTCHAR F
ENCODING 70
SWIDTH 640 0
DWIDTH 6 0
BBX 6 6 0 0
BITMAP
78
40
70
40
40
40
ENDCHAR
STARTCHAR G
ENCODING 71
SWIDTH 640 0
DWIDTH 6 0
BBX 6 6 0 0
BITMAP
30
48
40
58
48
30
ENDCHAR
STARTCHAR H
ENCODING 72
SWIDTH 640 0
DWIDTH 6 0
BBX 6 6 0 0
BITMAP
48
48
78
48
48
48
ENDCHAR
STARTCHAR I
ENCODING 73
SWIDTH 640 0
DWIDTH 6 0
BBX 6 6 0 0
BITMAP
70
20
20
20
20
70
ENDCHAR
STARTCHAR J
ENCODING 74
SWIDTH 640 0
DWIDTH 6 0
BBX 6 6 0 0
BITMAP
38
10
10
10
90
60
ENDCHAR
STARTCHAR K
ENCODING 75
SWIDTH 640 0
DWIDTH 6 0
BBX 6 6 0 0
BITMAP
48
50
60
50
48
48
ENDCHAR
STARTCHAR L
ENCODING 76
SWIDTH 640 0
DWIDTH 6 0
BBX 6 6 0 0
BITMAP
40
40
40
40
40
78
ENDCHAR
STARTCHAR M
ENCODING 77
SWIDTH 640 0
DWIDTH 6 0
BBX 6 6 0 0
BITMAP
88
D8
A8
A8
88
88
ENDCHAR
STARTCHAR N
ENCODING 78
SWIDTH 640 0
DWIDTH 6 0
BBX 6 6 0 0
BITMAP
48
68
58
48
48
48
ENDCHAR
STARTCHAR O
ENCODING 79
SWIDTH 640 0
DWIDTH 6 0
BBX 6 6 0 0
BITMAP
70
88
88
88
88
70
ENDCHAR
STARTCHAR P
ENCODING 80
SWIDTH 640 0
DWIDTH 6 0
BBX 6 6 0 0
BITMAP
70
48
48
70
40
40
ENDCHAR
STARTCHAR Q
ENCODING 81
SWIDTH 640 0
DWIDTH 6 0
BBX 6 7 0 -1
BITMAP
30
48
48
68
58
30
08
ENDCHAR
STARTCHAR R
ENCODING 82
SWIDTH 640 0
DWIDTH 6 0
BBX 6 6 0 0
BITMAP
70
48
48
70
48
48
ENDCHAR
STARTCHAR S
ENCODING 83
SWIDTH 640 0
DWIDTH 6 0
BBX 6 6 0 0
BITMAP
30
48
20
10
48
30
ENDCHAR
STARTCHAR T
ENCODING 84
SWIDTH 640 0
DWIDTH 6 0
BBX 6 6 0 0
BITMAP
F8
20
20
20
20
20
ENDCHAR
STARTCHAR U
ENCODING 85
SWIDTH 640 0
DWIDTH 6 0
BBX 6 6 0 0
BITMAP
48
48
48
48
48
30
ENDCHAR
STARTCHAR V
ENCODING 86
SWIDTH 640 0
DWIDTH 6 0
BBX 6 6 0 0
BITMAP
48
48
48
78
30
30
ENDCHAR
STARTCHAR W
ENCODING 87
SWIDTH 640 0
DWIDTH 6 0
BBX 6 6 0 0
BITMAP
88
88
A8
A8
D8
88
ENDCHAR
STARTCHAR X
ENCODING 88
SWIDTH 640 0
DWIDTH 6 0
BBX 6 6 0 0
BITMAP
88
50
20
20
50
88
ENDCHAR
STARTCHAR Y
ENCODING 89
SWIDTH 640 0
DWIDTH 6 0
BBX 6 6 0 0
BITMAP
88
88
50
20
20
20
ENDCHAR
STARTCHAR Z
ENCODING 90
SWIDTH 640 0
DWIDTH 6 0
BBX 6 6 0 0
BITMAP
78
08
10
20
40
78
ENDCHAR
STARTCHAR bracketleft
ENCODING 91
SWIDTH 640 0
DWIDTH 6 0
BBX 6 6 0 0
BITMAP
70
40
40
40
40
70
ENDCHAR
STARTCHAR backslash
ENCODING 92
SWIDTH 640 0
DWIDTH 6 0
BBX 6 6 0 0
BITMAP
40
40
20
10
08
08
ENDCHAR
STARTCHAR bracketright
ENCODING 93
SWIDTH 640 0
DWIDTH 6 0
BBX 6 6 0 0
BITMAP
70
10
10
10
10
70
ENDCHAR
STARTCHAR asciicircum
ENCODING 94
SWIDTH 640 0
DWIDTH 6 0
BBX 6 3 0 3
BITMAP
20
50
88
ENDCHAR
STARTCHAR underscore
ENCODING 95
SWIDTH 640 0
DWIDTH 6 0
BBX 6 1 0 -2
BITMAP
F8
ENDCHAR
STARTCHAR grave
ENCODING 96
SWIDTH 640 0
DWIDTH 6 0
BBX 6 2 0 4
BITMAP
20
10
ENDCHAR
STARTCHAR a
ENCODING 97
SWIDTH 640 0
DWIDTH 6 0
BBX 6 4 0 0
BITMAP
38
48
48
38
ENDCHAR
STARTCHAR b
ENCODING 98
SWIDTH 640 0
DWIDTH 6 0
BBX 6 6 0 0
BITMAP
40
40
70
48
48
70
ENDCHAR
STARTCHAR c
ENCODING 99
SWIDTH 640 0
DWIDTH 6 0
BBX 6 4 0 0
BITMAP
38
40
40
38
ENDCHAR
STARTCHAR d
ENCODING 100
SWIDTH 640 0
DWIDTH 6 0
BBX 6 6 0 0
BITMAP
08
08
38
48
48
38
ENDCHAR
STARTCHAR e
ENCODING 101
SWIDTH 640 0
DWIDTH 6 0
BBX 6 4 0 0
BITMAP
30
58
60
38
ENDCHAR
STARTCHAR f
ENCODING 102
SWIDTH 640 0
DWIDTH 6 0
BBX 6 6 0 0
BITMAP
10
28
20
70
20
20
ENDCHAR
STARTCHAR g
ENCODING 103
SWIDTH 640 0
DWIDTH 6 0
BBX 6 6 0 -2
BITMAP
30
48
48
38
08
30
ENDCHAR
STARTCHAR h
ENCODING 104
SWIDTH 640 0
DWIDTH 6 0
BBX 6 6 0 0
BITMAP
40
40
70
48
48
48
ENDCHAR
STARTCHAR i
ENCODING 105
SWIDTH 640 0
DWIDTH 6 0
BBX 6 6 0 0
BITMAP
20
00
60
20
20
70
ENDCHAR
STARTCHAR j
ENCODING 106
SWIDTH 640 0
DWIDTH 6 0
BBX 6 8 0 -2
BITMAP
10
00
30
10
10
10
50
20
ENDCHAR
STARTCHAR k
ENCODING 107
SWIDTH 640 0
DWIDTH 6 0
BBX 6 6 0 0
BITMAP
40
40
50
60
50
48
ENDCHAR
STARTCHAR l
ENCODING 108
SWIDTH 640 0
DWIDTH 6 0
BBX 6 6 0 0
BITMAP
60
20
20
20
20
70
ENDCHAR
STARTCHAR m
ENCODING 109
SWIDTH 640 0
DWIDTH 6 0
BBX 6 4 0 0
BITMAP
D0
A8
A8
88
ENDCHAR
STARTCHAR n
ENCODING 110
SWIDTH 640 0
DWIDTH 6 0
BBX 6 4 0 0
BITMAP
70
48
48
48
ENDCHAR
STARTCHAR o
ENCODING 111
SWIDTH 640 0
DWIDTH 6 0
BBX 6 4 0 0
BITMAP
30
48
48
30
ENDCHAR
STARTCHAR p
ENCODING 112
SWIDTH 640 0
DWIDTH 6 0
BBX 6 6 0 -2
BITMAP
70
48
48
70
40
40
ENDCHAR
STARTCHAR q
ENCODING 113
SWIDTH 640 0
DWIDTH 6 0
BBX 6 6 0 -2
BITMAP
38
48
48
38
08
08
ENDCHAR
STARTCHAR r
ENCODING 114
SWIDTH 640 0
DWIDTH 6 0
BBX 6 4 0 0
BITMAP
50
68
40
40
ENDCHAR
STARTCHAR s
ENCODING 115
SWIDTH 640 0
DWIDTH 6 0
BBX 6 4 0 0
BITMAP
38
60
18
70
ENDCHAR
STARTCHAR t
ENCODING 116
SWIDTH 640 0
DWIDTH 6 0
BBX 6 6 0 0
BITMAP
20
20
70
20
28
10
ENDCHAR
STARTCHAR u
ENCODING 117
SWIDTH 640 0
DWIDTH 6 0
BBX 6 4 0 0
BITMAP
48
48
48
38
ENDCHAR
STARTCHAR v
ENCODING 118
SWIDTH 640 0
DWIDTH 6 0
BBX 6 4 0 0
BITMAP
48
48
30
30
ENDCHAR
STARTCHAR w
ENCODING 119
SWIDTH 640 0
DWIDTH 6 0
BBX 6 4 0 0
BITMAP
88
A8
A8
50
ENDCHAR
STARTCHAR x
ENCODING 120
SWIDTH 640 0
DWIDTH 6 0
BBX 6 4 0 0
BITMAP
48
30
30
48
ENDCHAR
STARTCHAR y
ENCODING 121
SWIDTH 640 0
DWIDTH 6 0
BBX 6 6 0 -2
BITMAP
48
48
48
38
48
30
ENDCHAR
STARTCHAR z
ENCODING 122
SWIDTH 640 0
DWIDTH 6 0
BBX 6 4 0 0
BITMAP
78
10
20
78
ENDCHAR
STARTCHAR braceleft
ENCODING 123
SWIDTH 640 0
DWIDTH 6 0
BBX 6 7 0 0
BITMAP
10
20
20
40
20
20
10
ENDCHAR
STARTCHAR bar
ENCODING 124
SWIDTH 640 0
DWIDTH 6 0
BBX 6 7 0 -1
BITMAP
20
20
20
20
20
20
20
ENDCHAR
STARTCHAR braceright
ENCODING 125
SWIDTH 640 0
DWIDTH 6 0
BBX 6 7 0 0
BITMAP
40
20
20
10
20
20
40
ENDCHAR
STARTCHAR asciitilde
ENCODING 126
SWIDTH 640 0
DWIDTH 6 0
BBX 6 2 0 3
BITMAP
28
50
ENDCHAR
STARTCHAR bullet
ENCODING 149
SWIDTH 640 0
DWIDTH 6 0
BBX 6 4 0 1
BITMAP
30
78
78
30
ENDCHAR
STARTCHAR lessequal
ENCODING 152
SWIDTH 640 0
DWIDTH 6 0
BBX 6 7 0 -1
BITMAP
18
60
80
60
98
60
18
ENDCHAR
STARTCHAR greaterequal
ENCODING 153
SWIDTH 640 0
DWIDTH 6 0
BBX 6 7 0 -1
BITMAP
C0
30
08
30
C8
30
C0
ENDCHAR
STARTCHAR space
ENCODING 154
SWIDTH 640 0
DWIDTH 6 0
BBX 0 0 0 0
BITMAP
ENDCHAR
STARTCHAR degree
ENCODING 156
SWIDTH 640 0
DWIDTH 6 0
BBX 6 3 0 2
BITMAP
30
48
30
ENDCHAR
STARTCHAR twosuperior
ENCODING 157
SWIDTH 640 0
DWIDTH 6 0
BBX 6 5 0 1
BITMAP
20
50
10
20
70
ENDCHAR
STARTCHAR periodcentered
ENCODING 158
SWIDTH 640 0
DWIDTH 6 0
BBX 6 1 0 2
BITMAP
20
ENDCHAR
STARTCHAR afii10071
ENCODING 163
SWIDTH 640 0
DWIDTH 6 0
BBX 6 6 0 0
BITMAP
50
00
30
48
70
38
ENDCHAR
STARTCHAR afii10023
ENCODING 179
SWIDTH 640 0
DWIDTH 6 0
BBX 6 7 0 0
BITMAP
28
00
78
40
70
40
78
ENDCHAR
STARTCHAR copyright
ENCODING 191
SWIDTH 640 0
DWIDTH 6 0
BBX 6 7 0 0
BITMAP
78
84
94
A4
94
84
78
ENDCHAR
STARTCHAR afii10096
ENCODING 192
SWIDTH 640 0
DWIDTH 6 0
BBX 6 4 0 0
BITMAP
90
E8
E8
90
ENDCHAR
STARTCHAR afii10065
ENCODING 193
SWIDTH 640 0
DWIDTH 6 0
BBX 6 4 0 0
BITMAP
70
90
90
78
ENDCHAR
STARTCHAR afii10066
ENCODING 194
SWIDTH 640 0
DWIDTH 6 0
BBX 6 7 0 0
BITMAP
08
30
40
70
48
48
30
ENDCHAR
STARTCHAR afii10088
ENCODING 195
SWIDTH 640 0
DWIDTH 6 0
BBX 6 6 0 -2
BITMAP
90
90
90
F8
08
10
ENDCHAR
STARTCHAR afii10069
ENCODING 196
SWIDTH 640 0
DWIDTH 6 0
BBX 6 5 0 -1
BITMAP
30
50
50
F8
88
ENDCHAR
STARTCHAR afii10070
ENCODING 197
SWIDTH 640 0
DWIDTH 6 0
BBX 6 4 0 0
BITMAP
60
90
E0
70
ENDCHAR
STARTCHAR afii10086
ENCODING 198
SWIDTH 640 0
DWIDTH 6 0
BBX 6 8 0 -2
BITMAP
20
20
70
A8
A8
70
20
20
ENDCHAR
STARTCHAR afii10068
ENCODING 199
SWIDTH 640 0
DWIDTH 6 0
BBX 6 4 0 0
BITMAP
78
40
40
40
ENDCHAR
STARTCHAR afii10087
ENCODING 200
SWIDTH 640 0
DWIDTH 6 0
BBX 6 4 0 0
BITMAP
48
30
30
48
ENDCHAR
STARTCHAR afii10074
ENCODING 201
SWIDTH 640 0
DWIDTH 6 0
BBX 6 4 0 0
BITMAP
88
98
A8
C8
ENDCHAR
STARTCHAR afii10075
ENCODING 202
SWIDTH 640 0
DWIDTH 6 0
BBX 6 6 0 0
BITMAP
50
20
88
98
A8
C8
ENDCHAR
STARTCHAR afii10076
ENCODING 203
SWIDTH 640 0
DWIDTH 6 0
BBX 6 4 0 0
BITMAP
48
50
70
48
ENDCHAR
STARTCHAR afii10077
ENCODING 204
SWIDTH 640 0
DWIDTH 6 0
BBX 6 4 0 0
BITMAP
38
48
48
88
ENDCHAR
STARTCHAR afii10078
ENCODING 205
SWIDTH 640 0
DWIDTH 6 0
BBX 6 4 0 0
BITMAP
88
D8
A8
88
ENDCHAR
STARTCHAR afii10079
ENCODING 206
SWIDTH 640 0
DWIDTH 6 0
BBX 6 4 0 0
BITMAP
88
F8
88
88
ENDCHAR
STARTCHAR afii10080
ENCODING 207
SWIDTH 640 0
DWIDTH 6 0
BBX 6 4 0 0
BITMAP
70
88
88
70
ENDCHAR
STARTCHAR afii10081
ENCODING 208
SWIDTH 640 0
DWIDTH 6 0
BBX 6 4 0 0
BITMAP
F8
88
88
88
ENDCHAR
STARTCHAR afii10097
ENCODING 209
SWIDTH 640 0
DWIDTH 6 0
BBX 6 4 0 0
BITMAP
70
90
70
90
ENDCHAR
STARTCHAR afii10082
ENCODING 210
SWIDTH 640 0
DWIDTH 6 0
BBX 6 6 0 -2
BITMAP
F0
88
88
F0
80
80
ENDCHAR
STARTCHAR afii10083
ENCODING 211
SWIDTH 640 0
DWIDTH 6 0
BBX 6 4 0 0
BITMAP
70
88
80
78
ENDCHAR
STARTCHAR afii10084
ENCODING 212
SWIDTH 640 0
DWIDTH 6 0
BBX 6 4 0 0
BITMAP
F8
20
20
20
ENDCHAR
STARTCHAR afii10085
ENCODING 213
SWIDTH 640 0
DWIDTH 6 0
BBX 6 6 0 -2
BITMAP
88
88
88
78
08
70
ENDCHAR
STARTCHAR afii10072
ENCODING 214
SWIDTH 640 0
DWIDTH 6 0
BBX 6 4 0 0
BITMAP
A8
70
70
A8
ENDCHAR
STARTCHAR afii10067
ENCODING 215
SWIDTH 640 0
DWIDTH 6 0
BBX 6 4 0 0
BITMAP
60
50
68
70
ENDCHAR
STARTCHAR afii10094
ENCODING 216
SWIDTH 640 0
DWIDTH 6 0
BBX 6 4 0 0
BITMAP
40
70
48
70
ENDCHAR
STARTCHAR afii10093
ENCODING 217
SWIDTH 640 0
DWIDTH 6 0
BBX 6 4 0 0
BITMAP
88
E8
98
E8
ENDCHAR
STARTCHAR afii10073
ENCODING 218
SWIDTH 640 0
DWIDTH 6 0
BBX 6 4 0 0
BITMAP
30
28
18
70
ENDCHAR
STARTCHAR afii10090
ENCODING 219
SWIDTH 640 0
DWIDTH 6 0
BBX 6 4 0 0
BITMAP
A8
A8
A8
F8
ENDCHAR
STARTCHAR afii10095
ENCODING 220
SWIDTH 640 0
DWIDTH 6 0
BBX 6 4 0 0
BITMAP
E0
50
30
E0
ENDCHAR
STARTCHAR afii10091
ENCODING 221
SWIDTH 640 0
DWIDTH 6 0
BBX 6 6 0 -2
BITMAP
A8
A8
A8
F8
08
10
ENDCHAR
STARTCHAR afii10089
ENCODING 222
SWIDTH 640 0
DWIDTH 6 0
BBX 6 4 0 0
BITMAP
88
88
78
08
ENDCHAR
STARTCHAR afii10092
ENCODING 223
SWIDTH 640 0
DWIDTH 6 0
BBX 6 4 0 0
BITMAP
C0
70
48
70
ENDCHAR
STARTCHAR afii10048
ENCODING 224
SWIDTH 640 0
DWIDTH 6 0
BBX 6 6 0 0
BITMAP
90
A8
E8
E8
A8
90
ENDCHAR
STARTCHAR afii10017
ENCODING 225
SWIDTH 640 0
DWIDTH 6 0
BBX 6 6 0 0
BITMAP
20
50
88
F8
88
88
ENDCHAR
STARTCHAR afii10018
ENCODING 226
SWIDTH 640 0
DWIDTH 6 0
BBX 6 6 0 0
BITMAP
F0
80
F0
88
88
F0
ENDCHAR
STARTCHAR afii10040
ENCODING 227
SWIDTH 640 0
DWIDTH 6 0
BBX 6 8 0 -2
BITMAP
90
90
90
90
90
F8
08
10
ENDCHAR
STARTCHAR afii10021
ENCODING 228
SWIDTH 640 0
DWIDTH 6 0
BBX 6 7 0 -1
BITMAP
30
50
50
50
50
F8
88
ENDCHAR
STARTCHAR afii10022
ENCODING 229
SWIDTH 640 0
DWIDTH 6 0
BBX 6 6 0 0
BITMAP
78
40
70
40
40
78
ENDCHAR
STARTCHAR afii10038
ENCODING 230
SWIDTH 640 0
DWIDTH 6 0
BBX 6 6 0 0
BITMAP
20
70
A8
A8
70
20
ENDCHAR
STARTCHAR afii10020
ENCODING 231
SWIDTH 640 0
DWIDTH 6 0
BBX 6 6 0 0
BITMAP
78
40
40
40
40
40
ENDCHAR
STARTCHAR afii10039
ENCODING 232
SWIDTH 640 0
DWIDTH 6 0
BBX 6 6 0 0
BITMAP
88
50
20
20
50
88
ENDCHAR
STARTCHAR afii10026
ENCODING 233
SWIDTH 640 0
DWIDTH 6 0
BBX 6 6 0 0
BITMAP
48
48
58
68
48
48
ENDCHAR
STARTCHAR afii10027
ENCODING 234
SWIDTH 640 0
DWIDTH 6 0
BBX 6 7 0 0
BITMAP
30
48
48
58
68
48
48
ENDCHAR
STARTCHAR afii10028
ENCODING 235
SWIDTH 640 0
DWIDTH 6 0
BBX 6 6 0 0
BITMAP
48
50
60
50
48
48
ENDCHAR
STARTCHAR afii10029
ENCODING 236
SWIDTH 640 0
DWIDTH 6 0
BBX 6 6 0 0
BITMAP
38
48
48
48
48
88
ENDCHAR
STARTCHAR afii10030
ENCODING 237
SWIDTH 640 0
DWIDTH 6 0
BBX 6 6 0 0
BITMAP
88
D8
A8
A8
88
88
ENDCHAR
STARTCHAR afii10031
ENCODING 238
SWIDTH 640 0
DWIDTH 6 0
BBX 6 6 0 0
BITMAP
48
48
78
48
48
48
ENDCHAR
STARTCHAR afii10032
ENCODING 239
SWIDTH 640 0
DWIDTH 6 0
BBX 6 6 0 0
BITMAP
70
88
88
88
88
70
ENDCHAR
STARTCHAR afii10033
ENCODING 240
SWIDTH 640 0
DWIDTH 6 0
BBX 6 6 0 0
BITMAP
F8
88
88
88
88
88
ENDCHAR
STARTCHAR afii10049
ENCODING 241
SWIDTH 640 0
DWIDTH 6 0
BBX 6 6 0 0
BITMAP
38
48
48
38
48
48
ENDCHAR
STARTCHAR afii10034
ENCODING 242
SWIDTH 640 0
DWIDTH 6 0
BBX 6 6 0 0
BITMAP
70
48
48
70
40
40
ENDCHAR
STARTCHAR afii10035
ENCODING 243
SWIDTH 640 0
DWIDTH 6 0
BBX 6 6 0 0
BITMAP
30
48
40
40
48
30
ENDCHAR
STARTCHAR afii10036
ENCODING 244
SWIDTH 640 0
DWIDTH 6 0
BBX 6 6 0 0
BITMAP
F8
20
20
20
20
20
ENDCHAR
STARTCHAR afii10037
ENCODING 245
SWIDTH 640 0
DWIDTH 6 0
BBX 6 6 0 0
BITMAP
88
88
88
78
08
70
ENDCHAR
STARTCHAR afii10024
ENCODING 246
SWIDTH 640 0
DWIDTH 6 0
BBX 6 6 0 0
BITMAP
A8
A8
70
A8
A8
A8
ENDCHAR
STARTCHAR afii10019
ENCODING 247
SWIDTH 640 0
DWIDTH 6 0
BBX 6 6 0 0
BITMAP
F0
88
F0
88
88
F0
ENDCHAR
STARTCHAR afii10046
ENCODING 248
SWIDTH 640 0
DWIDTH 6 0
BBX 6 6 0 0
BITMAP
40
40
70
48
48
70
ENDCHAR
STARTCHAR afii10045
ENCODING 249
SWIDTH 640 0
DWIDTH 6 0
BBX 6 6 0 0
BITMAP
88
88
E8
98
98
E8
ENDCHAR
STARTCHAR afii10025
ENCODING 250
SWIDTH 640 0
DWIDTH 6 0
BBX 6 6 0 0
BITMAP
70
88
30
08
88
70
ENDCHAR
STARTCHAR afii10042
ENCODING 251
SWIDTH 640 0
DWIDTH 6 0
BBX 6 6 0 0
BITMAP
A8
A8
A8
A8
A8
F8
ENDCHAR
STARTCHAR afii10047
ENCODING 252
SWIDTH 640 0
DWIDTH 6 0
BBX 6 6 0 0
BITMAP
70
88
38
08
88
70
ENDCHAR
STARTCHAR afii10043
ENCODING 253
SWIDTH 640 0
DWIDTH 6 0
BBX 6 8 0 -2
BITMAP
A8
A8
A8
A8
A8
F8
08
10
ENDCHAR
STARTCHAR afii10041
ENCODING 254
SWIDTH 640 0
DWIDTH 6 0
BBX 6 6 0 0
BITMAP
88
88
88
78
08
08
ENDCHAR
STARTCHAR afii10044
ENCODING 255
SWIDTH 640 0
DWIDTH 6 0
BBX 6 6 0 0
BITMAP
C0
40
70
48
48
70
ENDCHAR
ENDFONT
